<?xml version="1.0" standalone="no"?>
<!DOCTYPE svg PUBLIC "-//W3C//DTD SVG 20010904//EN"
 "http://www.w3.org/TR/2001/REC-SVG-20010904/DTD/svg10.dtd">
<svg version="1.0" xmlns="http://www.w3.org/2000/svg"
 width="318.000000pt" height="299.000000pt" viewBox="0 0 318.000000 299.000000"
 preserveAspectRatio="xMidYMid meet">

<g transform="translate(0.000000,299.000000) scale(0.100000,-0.100000)"
fill="#000000" stroke="none">
<path d="M980 2925 c-90 -41 -155 -123 -197 -250 -23 -70 -26 -96 -26 -210 0
-150 20 -239 78 -361 45 -94 137 -194 211 -230 183 -90 365 40 421 299 20 97
13 274 -17 377 -47 163 -151 310 -257 361 -61 30 -163 36 -213 14z"/>
<path d="M1965 2914 c-170 -87 -285 -330 -285 -602 0 -127 18 -219 59 -305 65
-137 159 -203 275 -195 72 5 119 26 180 79 277 244 274 884 -6 1023 -71 36
-153 35 -223 0z"/>
<path d="M229 2136 c-79 -28 -139 -93 -175 -191 -14 -38 -18 -78 -18 -165 0
-99 4 -126 28 -195 58 -169 166 -304 296 -369 216 -108 400 -4 440 248 34 212
-87 489 -268 613 -100 68 -215 91 -303 59z"/>
<path d="M2772 2140 c-42 -9 -123 -46 -165 -75 -44 -31 -128 -120 -164 -174
-50 -75 -92 -186 -106 -282 -20 -138 16 -272 95 -351 62 -62 91 -73 198 -73
85 0 102 3 160 31 273 129 429 526 304 775 -26 52 -91 114 -139 135 -45 18
-130 25 -183 14z"/>
<path d="M1452 1645 c-120 -34 -189 -97 -330 -305 -136 -201 -168 -238 -324
-368 -203 -170 -282 -280 -309 -434 -32 -178 69 -365 243 -452 143 -72 242
-73 418 -3 255 101 373 106 810 32 322 -54 389 -55 483 -12 247 113 309 464
121 693 -21 25 -86 77 -148 118 -111 74 -205 161 -263 246 -17 25 -60 101 -97
168 -109 204 -151 252 -256 301 -48 22 -71 25 -175 28 -84 2 -136 -2 -173 -12z"/>
</g>
</svg>
